# AST/ASF file generated using VICON BodyLanguage
# -----------------------------------------------
:version 1.10
:name VICON
:units
  mass 1.0
  length 0.45
  angle deg
:documentation
   .ast/.asf automatically generated from VICON data using
   VICON BodyBuilder and BodyLanguage model FoxedUp or BRILLIANT.MOD
:root
   order TX TY TZ RX RY RZ
   axis XYZ
   position 0 0 0  
   orientation 0 0 0 
:bonedata
  begin
     id 1 
     name lhipjoint
     direction 0.643824 -0.71708 0.266994 
     length 2.52133 
     axis 0 0 0  XYZ
  end
  begin
     id 2 
     name lfemur
     direction 0.34202 -0.939693 0  
     length 7.51824  
     axis 0 0 20  XYZ
    dof rx ry rz
    limits (-160.0 20.0)
           (-70.0 70.0)
           (-60.0 70.0)
  end
  begin
     id 3 
     name ltibia
     direction 0.34202 -0.939693 0   
     length 7.3685   
     axis 0 0 20   XYZ
    dof rx
    limits (-10.0 170.0)
  end
  begin
     id 4 
     name lfoot
     direction 0.105419 -0.289636 0.951314   
     length 2.20972   
     axis -90 7.62852e-016 20   XYZ
    dof rx rz
    limits (-45.0 90.0)
           (-70.0 20.0)
  end
  begin
     id 5 
     name ltoes
     direction 1.53549e-011 -4.21833e-011 1   
     length 1.10139   
     axis -90 7.62852e-016 20   XYZ
    dof rx
    limits (-90.0 20.0)
  end
  begin
     id 6 
     name rhipjoint
     direction -0.608823 -0.743445 0.276811   
     length 2.43192  
     axis 0 0 0  XYZ 
  end
  begin
     id 7 
     name rfemur
     direction -0.34202 -0.939693 0   
     length 7.69715   
     axis 0 0 -20   XYZ
    dof rx ry rz
    limits (-160.0 20.0)
           (-70.0 70.0)
           (-70.0 60.0)
  end
  begin
     id 8 
     name rtibia
     direction -0.34202 -0.939693 0   
     length 7.44924   
     axis 0 0 -20   XYZ
    dof rx
    limits (-10.0 170.0)
 end
 begin
     id 9 
     name rfoot
     direction -0.103614 -0.284677 0.953007   
     length 2.22623  
     axis -90 -7.62852e-016 -20   XYZ
    dof rx rz
    limits (-45.0 90.0)
           (-20.0 70.0)
  end
  begin
     id 10 
     name rtoes
     direction -1.53537e-011 -4.22026e-011 1   
     length 1.11   
     axis -90 -7.62852e-016 -20   XYZ
    dof rx
    limits (-90.0 20.0)
  end
  begin
     id 11 
     name lowerback
     direction -0.0101212 0.99662 -0.0815298   
     length 2.08277   
     axis 0 0 0   XYZ
    dof rx ry rz
    limits (-20.0 45.0)
           (-30.0 30.0)
           (-30.0 30.0)
  end
  begin
     id 12 
     name upperback
     direction 0.024314 0.999591 -0.0150645   
     length 2.08524   
     axis 0 0 0   XYZ
    dof rx ry rz
    limits (-20.0 45.0)
           (-30.0 30.0)
           (-30.0 30.0)
  end
  begin
     id 13 
     name thorax
     direction 0.0285959 0.999323 0.0231357   
     length 2.09645   
     axis 0 0 0   XYZ
    dof rx ry rz
    limits (-20.0 45.0)
           (-30.0 30.0)
           (-30.0 30.0)
  end
  begin
     id 14 
     name lowerneck
     direction -0.065512 0.979301 0.191515   
     length 1.63798   
     axis 0 0 0   XYZ
    dof rx ry rz
    limits (-20.0 45.0)
           (-30.0 30.0)
           (-30.0 30.0)
  end
  begin
     id 15 
     name upperneck
     direction 0.0498479 0.98191 -0.182667   
     length 1.68731   
     axis 0 0 0   XYZ
    dof rx ry rz
    limits (-20.0 45.0)
           (-30.0 30.0)
           (-30.0 30.0)
  end
  begin
     id 16
     name head
     direction 0.0230358 0.996257 -0.0833175  
     length 1.69785  
     axis 0 0 0   XYZ
    dof rx ry rz
    limits (-20.0 45.0)
           (-30.0 30.0)
           (-30.0 30.0)
  end
  begin
     id 17 
     name lclavicle
     direction 0.967963 0.201165 -0.150269  
     length 3.63976  
     axis 0 0 0   XYZ
    dof ry rz
    limits (-20.0 10.0)
           (0.0 20.0)
  end
  begin
     id 18 
     name lhumerus
     direction 1 -4.48954e-011 -2.92837e-028   
     length 5.32462   
     axis 180 -30 -90   XYZ
    dof rx ry rz
    limits (-60.0 90.0)
           (-90.0 90.0)
           (-90.0 90.0)
  end
  begin
     id 19
     name lradius
     direction 1 -4.48958e-011 -6.39511e-027   
     length 3.48402   
     axis 180 -30 -90   XYZ
    dof rx
    limits (-10.0 170.0)
  end
  begin
     id 20
     name lwrist
     direction 1 -4.48975e-011 -1.1413e-026   
     length 1.74201   
     axis 6.88575e-015 90 90   XYZ
    dof ry
    limits (-180.0 0.0)
 end
  begin
     id 21 
     name lhand
     direction 1 -4.48899e-011 -2.28192e-026   
     length 0.572476   
     axis 1.45643e-014 90 90   XYZ
    dof rx rz
    limits (-90.0 90.0)
           (-45.0 45.0)
  end
  begin
     id 22 
     name lfingers
     direction 1 -4.49155e-011 -4.5684e-026   
     length 0.461545   
     axis 2.91283e-014 90 90   XYZ
    dof rx
    limits (0.0 90.0)
  end
  begin
     id 23
     name lthumb
     direction 0.707107 -6.34943e-011 0.707107   
     length 0.662688   
     axis -90 45 -2.25915e-014   XYZ
    dof rx rz
    limits (-45.0 45.0)
           (-45.0 45.0)
  end
  begin
     id 24 
     name rclavicle
     direction -0.964103 0.264019 -0.0282629   
     length 3.54491  
     axis 0 0 0   XYZ 
    dof ry rz
    limits (-10.0 20.0)
           (-20.0 0.0)
  end
  begin
     id 25 
     name rhumerus
     direction -1 -4.48964e-011 -2.45032e-027  
     length 5.33589   
     axis 180 30 90   XYZ
    dof rx ry rz
    limits (-90.0 60.0)
           (-90.0 90.0)
           (-90.0 90.0)
  end
  begin
     id 26 
     name rradius
     direction -1 -4.48987e-011 -1.55093e-027   
     length 3.64134   
     axis 180 30 90   XYZ
    dof rx
    limits (-10.0 170.0)
  end
  begin
     id 27 
     name rwrist
     direction -1 -4.4897e-011 -1.14128e-026   
     length 1.82067   
     axis 6.88575e-015 -90 -90   XYZ
    dof ry
    limits (-180.0 0.0)
  end
  begin
     id 28
     name rhand
     direction -1 -4.49021e-011 -2.28301e-026   
     length 0.734811   
     axis 1.45643e-014 -90 -90   XYZ
    dof rx rz
    limits (-90.0 90.0)
           (-45.0 45.0)
  end
  begin
     id 29
     name rfingers
     direction -1 -4.48862e-011 -4.56319e-026   
     length 0.592424   
     axis 2.91283e-014 -90 -90   XYZ
    dof rx
    limits (0.0 90.0)
  end
  begin
     id 30
     name rthumb
     direction -0.707107 -6.34978e-011 0.707107   
     length 0.850605   
     axis -90 -45 2.25915e-014   XYZ
    dof rx rz
    limits (-45.0 45.0)
           (-45.0 45.0)
  end
:hierarchy
  begin
    root lhipjoint rhipjoint lowerback
    lhipjoint lfemur
    lfemur ltibia
    ltibia lfoot
    lfoot ltoes
    rhipjoint rfemur
    rfemur rtibia
    rtibia rfoot
    rfoot rtoes
    lowerback upperback
    upperback thorax
    thorax lowerneck lclavicle rclavicle
    lowerneck upperneck
    upperneck head
    lclavicle lhumerus
    lhumerus lradius
    lradius lwrist
    lwrist lhand lthumb
    lhand lfingers
    rclavicle rhumerus
    rhumerus rradius
    rradius rwrist
    rwrist rhand rthumb
    rhand rfingers
  end

#!OML:ASF F:\VICON\USERDATA\INSTALL\rory3\rory3.ASF
:FULLY-SPECIFIED
:DEGREES
49
root -0.0791805 17.9821 -0.812177 2.59576 -12.2759 1.26609
lowerback -1.28696 -1.87404 -3.393
upperback -1.14808 -2.46967 2.01307
thorax -0.22584 -1.21319 3.94269
lowerneck -21.4057 1.30883 -8.06802
upperneck 33.058 4.77081 0.786612
head 14.9044 1.05577 2.59351
rclavicle -3.45016e-014 7.95139e-015
rhumerus -33.3858 -3.06845 -81.4106
rradius 32.5744
rwrist 19.3114
rhand -17.78 7.87488
rfingers 7.12502
rthumb 8.4826 -21.9348
lclavicle -3.45016e-014 7.95139e-015
lhumerus -12.9889 -19.7135 90.722
lradius 72.371
lwrist 2.21196
lhand -34.4075 25.4268
lfingers 7.12502
lthumb -7.5729 55.2712
rfemur -9.067 10.1468 14.9906
rtibia 25.6329
rfoot -15.9522 -3.15169
rtoes 4.12979
lfemur 0.93593 -1.70575 -21.8536
ltibia 11.3657
lfoot -10.4265 7.56691
ltoes -12.2529
50
root -0.0814865 17.9795 -0.810964 2.55862 -12.236 1.21385
lowerback -1.27892 -1.84951 -3.36972
upperback -1.07623 -2.43707 1.99511
thorax -0.161244 -1.19955 3.9103
lowerneck -21.3766 1.25739 -8.0968
upperneck 32.9474 4.66048 0.886799
head 14.8476 1.0266 2.61649
rclavicle 8.54463e-015 1.98785e-015
rhumerus -33.3521 -3.23862 -81.3539
rradius 32.4337
rwrist 19.4862
rhand -17.7092 7.62114
rfingers 7.12502
rthumb 8.55094 -22.1857
lclavicle 8.54463e-015 1.98785e-015
lhumerus -12.7473 -20.2485 90.4638
lradius 73.2665
lwrist 2.22714
lhand -34.5545 25.467
lfingers 7.12502
lthumb -7.71476 55.3063
rfemur -8.98408 10.1325 15.0654
rtibia 25.6105
rfoot -15.9885 -3.12383
rtoes 4.61704
lfemur 0.925505 -1.70062 -21.7792
ltibia 11.4861
lfoot -10.4914 7.49152
ltoes -12.1806
51
root -0.0819144 17.9809 -0.809987 2.59842 -12.2367 1.13075
lowerback -1.29724 -1.83402 -3.30549
upperback -1.08021 -2.41648 1.99972
thorax -0.159347 -1.1895 3.87868
lowerneck -21.2741 1.24471 -8.15238
upperneck 32.8848 4.59726 1.0263
head 14.7913 1.01809 2.66824
rclavicle 3.0998e-014 -3.18055e-015
rhumerus -33.4222 -3.29233 -81.3085
rradius 32.305
rwrist 19.6246
rhand -17.8408 7.73421
rfingers 7.12502
rthumb 8.42402 -22.0778
lclavicle 3.0998e-014 -3.18055e-015
lhumerus -12.4813 -20.8802 90.1397
lradius 74.0867
lwrist 2.25317
lhand -34.8289 25.6343
lfingers 7.12502
lthumb -7.9796 55.4637
rfemur -8.99734 10.0961 15.1507
rtibia 25.5853
rfoot -15.9571 -3.10963
rtoes 4.58798
lfemur 0.868738 -1.73198 -21.6889
ltibia 11.606
lfoot -10.5445 7.5282
ltoes -12.065
52
root -0.0801704 17.9835 -0.809313 2.6907 -12.3006 1.12188
lowerback -1.34752 -1.79607 -3.29176
upperback -1.1268 -2.36472 1.99113
thorax -0.184698 -1.16236 3.86231
lowerneck -21.2447 1.21221 -8.15717
upperneck 32.9311 4.53225 1.07314
head 14.8077 0.994777 2.67753
rclavicle 3.11564e-014 5.56597e-015
rhumerus -33.5231 -3.3462 -81.2161
rradius 32.1521
rwrist 19.7401
rhand -17.9274 8.15792
rfingers 7.12502
rthumb 8.3404 -21.6574
lclavicle 3.11564e-014 5.56597e-015
lhumerus -12.4342 -21.2497 89.9967
lradius 75.0571
lwrist 2.15746
lhand -34.9356 25.6755
lfingers 7.12502
lthumb -8.08264 55.5009
rfemur -9.11335 10.0692 15.1238
rtibia 25.5792
rfoot -15.9011 -3.01987
rtoes 4.66192
lfemur 0.76403 -1.71367 -21.7008
ltibia 11.6947
lfoot -10.5802 7.64338
ltoes -12.0447
53
root -0.0804547 17.9847 -0.808461 2.72808 -12.3445 1.1615
lowerback -1.37648 -1.76217 -3.37394
upperback -1.13687 -2.31793 1.97314
thorax -0.180698 -1.13846 3.89018
lowerneck -21.2774 1.17179 -8.14022
upperneck 32.9815 4.46077 1.10285
head 14.8416 0.968104 2.67645
rclavicle -6.64686e-015 -6.75868e-015
rhumerus -33.5768 -3.45729 -81.138
rradius 31.9927
rwrist 19.7738
rhand -17.8966 8.23683
rfingers 7.12502
rthumb 8.37015 -21.5773
lclavicle -6.64686e-015 -6.75868e-015
lhumerus -12.4489 -21.4439 89.929
lradius 76.1008
lwrist 1.92157
lhand -34.7422 25.7577
lfingers 7.12502
lthumb -7.89599 55.5902
rfemur -9.16329 10.0885 15.0641
rtibia 25.5661
rfoot -15.8641 -2.9662
rtoes 4.886
lfemur 0.678973 -1.70102 -21.7515
ltibia 11.7851
lfoot -10.6227 7.69535
ltoes -11.8514
54
root -0.0811106 17.9834 -0.808784 2.7218 -12.3159 1.18095
lowerback -1.32829 -1.75483 -3.45283
upperback -1.15183 -2.30886 1.97901
thorax -0.220687 -1.1324 3.94286
lowerneck -21.2864 1.12783 -8.19627
upperneck 33.0055 4.39355 1.17356
head 14.8547 0.941686 2.70415
rclavicle -1.83503e-014 -1.98785e-015
rhumerus -33.6092 -3.57647 -81.0289
rradius 31.7798
rwrist 19.8633
rhand -17.7294 8.22089
rfingers 7.12502
rthumb 8.53149 -21.5868
lclavicle -1.83503e-014 -1.98785e-015
lhumerus -12.2558 -21.7213 89.7574
lradius 76.9253
lwrist 1.71899
lhand -34.6128 25.8273
lfingers 7.12502
lthumb -7.77107 55.6645
rfemur -9.1581 10.0792 15.0462
rtibia 25.5772
rfoot -15.8721 -3.00331
rtoes 4.77289
lfemur 0.650434 -1.78511 -21.7724
ltibia 11.8384
lfoot -10.6473 7.73173
ltoes -11.8055
55
root -0.0817253 17.9844 -0.807362 2.75254 -12.2998 1.14482
lowerback -1.35055 -1.73704 -3.43253
upperback -1.1556 -2.28464 1.95857
thorax -0.215939 -1.12044 3.91006
lowerneck -21.3029 1.08042 -8.20566
upperneck 33.0252 4.29755 1.26077
head 14.8692 0.911651 2.72576
rclavicle 1.4561e-014 -7.15625e-015
rhumerus -33.632 -3.77085 -80.9505
rradius 31.5299
rwrist 20.0349
rhand -17.6153 8.26414
rfingers 7.12502
rthumb 8.64163 -21.539
lclavicle 1.4561e-014 -7.15625e-015
lhumerus -11.8431 -22.1537 89.4322
lradius 77.5996
lwrist 1.66102
lhand -34.7284 25.7863
lfingers 7.12502
lthumb -7.88266 55.6193
rfemur -9.18622 10.0343 15.085
rtibia 25.5817
rfoot -15.8488 -3.03996
rtoes 4.3049
lfemur 0.598586 -1.78147 -21.7365
ltibia 11.8796
lfoot -10.6648 7.70687
ltoes -12.0242
56
root -0.0827289 17.9831 -0.805725 2.74692 -12.2862 1.19818
lowerback -1.36877 -1.71077 -3.50722
upperback -1.16985 -2.24839 1.92883
thorax -0.222182 -1.10155 3.92178
lowerneck -21.237 1.02247 -8.26806
upperneck 33.0143 4.18933 1.36551
head 14.8505 0.874632 2.75873
rclavicle 6.83633e-015 -7.95139e-016
rhumerus -33.7615 -3.86937 -80.8557
rradius 31.3941
rwrist 20.0652
rhand -17.5101 8.30593
rfingers 7.12502
rthumb 8.74307 -21.493
lclavicle 6.83633e-015 -7.95139e-016
lhumerus -11.5752 -22.4862 89.2285
lradius 78.4337
lwrist 1.50728
lhand -34.797 25.8626
lfingers 7.12502
lthumb -7.94888 55.6932
rfemur -9.18269 10.0197 15.032
rtibia 25.5701
rfoot -15.8207 -3.00562
rtoes 4.25938
lfemur 0.569277 -1.79168 -21.7974
ltibia 11.9398
lfoot -10.6788 7.72335
ltoes -11.958
57
root -0.0850097 17.9843 -0.804957 2.749 -12.2147 1.13651
lowerback -1.33446 -1.72035 -3.54706
upperback -1.19885 -2.26206 2.0022
thorax -0.265566 -1.10664 4.02167
lowerneck -21.1432 0.971642 -8.4338
upperneck 32.9816 4.13917 1.43894
head 14.812 0.845618 2.80526
rclavicle 5.93559e-015 1.03368e-014
rhumerus -33.8278 -3.91122 -80.6749
rradius 31.1951
rwrist 20.1447
rhand -17.3853 8.36264
rfingers 7.12502
rthumb 8.86352 -21.4312
lclavicle 5.93559e-015 1.03368e-014
lhumerus -11.5231 -22.6733 89.158
lradius 79.4832
lwrist 1.18511
lhand -34.7531 26.1759
lfingers 7.12502
lthumb -7.90647 56.0081
rfemur -9.13485 10.0425 15.1106
rtibia 25.5382
rfoot -15.8487 -3.04334
rtoes 4.60597
lfemur 0.540611 -1.81151 -21.7205
ltibia 12.0106
lfoot -10.716 7.69138
ltoes -11.9474
58
root -0.0859422 17.9861 -0.804825 2.77709 -12.1018 1.07818
lowerback -1.31943 -1.74091 -3.56803
upperback -1.22641 -2.28994 2.0696
thorax -0.296174 -1.11922 4.10387
lowerneck -21.0543 0.915084 -8.59649
upperneck 32.921 4.07946 1.50988
head 14.7629 0.813936 2.84783
rclavicle 1.04548e-014 7.95139e-016
rhumerus -33.8514 -4.01019 -80.4761
rradius 30.9286
rwrist 20.3306
rhand -17.2291 8.36949
rfingers 7.12502
rthumb 9.01423 -21.4179
lclavicle 1.04548e-014 7.95139e-016
lhumerus -11.4022 -22.9372 89.032
lradius 80.5259
lwrist 0.961132
lhand -34.7973 26.3081
lfingers 7.12502
lthumb -7.94909 56.1386
rfemur -9.11791 10.0073 15.182
rtibia 25.5145
rfoot -15.8595 -3.13626
rtoes 4.55683
lfemur 0.494586 -1.79948 -21.6461
ltibia 12.0524
lfoot -10.7093 7.61862
ltoes -11.9725
59
root -0.0857116 17.9868 -0.801699 2.8147 -12.0131 1.09757
lowerback -1.40135 -1.75524 -3.58767
upperback -1.21928 -2.30637 2.0492
thorax -0.241419 -1.12873 4.09063
lowerneck -21.0122 0.869331 -8.62896
upperneck 32.8237 4.00358 1.54232
head 14.7121 0.787611 2.84951
rclavicle 7.85821e-016 -3.57812e-015
rhumerus -33.8279 -4.15166 -80.3884
rradius 30.634
rwrist 20.4673
rhand -17.1249 8.25288
rfingers 7.12502
rthumb 9.11477 -21.5302
lclavicle 7.85821e-016 -3.57812e-015
lhumerus -11.1715 -23.2033 88.7791
lradius 81.5267
lwrist 0.817418
lhand -34.8884 26.3804
lfingers 7.12502
lthumb -8.03708 56.2076
rfemur -9.10165 9.91838 15.1586
rtibia 25.4695
rfoot -15.8768 -3.14643
rtoes 4.37097
lfemur 0.430782 -1.81376 -21.6675
ltibia 12.0841
lfoot -10.6878 7.58425
ltoes -12.139
